<svg xmlns="http://www.w3.org/2000/svg" xmlns:xlink="http://www.w3.org/1999/xlink" width="212px"
    height="212px" viewBox="0 0 212 212" version="1.1">
    <script xmlns="" />
    <!-- Generator: Sketch 63.1 (92452) - https://sketch.com -->
    <title>America</title>
    <desc>Created with Sketch.</desc>
    <g id="America" stroke="none" stroke-width="1" fill="none" fill-rule="evenodd">
        <path
            d="M133.889134,100.030576 C133.481479,99.1435387 133.322412,98.1802348 133.403583,97.2376185 C133.504246,96.0686396 133.974385,94.9314772 134.798076,94.0110502 C136.096863,92.5597297 136.684431,90.719368 136.584472,88.9171395 C136.484512,87.114911 135.697026,85.3508158 134.245705,84.0520283 C133.288672,83.1955785 132.11595,82.6167029 130.854058,82.3778534 L33.3668534,63.9255798 C30.3725658,63.3588242 27.3913243,63.9095892 24.8905341,65.3151678 C22.3897439,66.7207464 20.369405,68.9811387 19.2969225,71.8336378 L8.50024945,100.549724 C7.41324522,103.440847 7.43148092,106.631438 8.55146124,109.509947 L20.9048008,141.259787 C21.9076992,143.837379 23.7346286,146.011095 26.1012021,147.442568 L73.8892539,176.348193 C75.689154,177.436901 77.7593666,177.702478 79.6585399,177.25006 C81.5577132,176.797642 83.2858473,175.627231 84.7499146,173.80057 L96.4089328,184.967308 C98.5349617,187.00357 101.285078,187.985315 104.012752,187.926488 C106.740426,187.86766 109.445658,186.76826 111.48192,184.642231 C112.325718,183.761235 113.012046,182.741949 113.511015,181.628764 L115.12298,178.032515 C115.635462,176.88918 116.479137,175.96814 117.507014,175.356816 C118.534891,174.745492 119.74697,174.443883 120.99626,174.539413 L144.966699,176.372361 L143.539243,171.740526 C143.453227,171.461418 143.488484,171.173868 143.615023,170.934591 C143.741561,170.695315 143.959381,170.50431 144.674873,170.378784 L150.638488,171.087947 C152.68376,171.331161 154.457062,172.616538 155.324542,174.484632 L159.231611,182.8984 C160.519075,185.670919 162.774923,187.877687 165.575087,189.103862 L166.807575,189.643561 C168.831381,190.529773 171.02446,190.49514 172.949634,189.662075 C174.756514,188.880198 176.351137,187.381512 177.26241,185.198579 L178.258957,182.392712 C179.43272,179.08788 179.168907,175.442532 177.531529,172.341141 L172.018393,161.898596 C171.475107,160.869547 171.257324,159.729259 171.353147,158.615963 C171.44897,157.502667 171.858399,156.416364 172.569536,155.495285 L186.227726,137.804905 C187.305066,136.40951 187.834674,134.736018 187.819178,133.067588 C187.803683,131.399158 187.243084,129.735791 186.140012,128.360647 C185.888674,128.047317 185.739198,127.675472 185.696748,127.291786 C185.654298,126.9081 185.718874,126.512573 185.895639,126.151878 L203.024439,91.2001445 C204.02458,89.1593322 204.433393,86.9278031 204.268505,84.7395021 C204.103617,82.5512012 203.365028,80.4061285 202.070367,78.5382289 L200.386804,76.109239 C199.084498,74.2303106 197.322475,72.7802469 195.317527,71.858696 C193.312579,70.9371451 191.064706,70.5441072 188.790699,70.7792275 C185.024047,71.1686797 183.480352,72.5480159 182.844422,73.6474224 C182.269612,74.6411616 181.766981,77.2779468 182.003924,81.8476351 C182.112693,83.9453652 181.105457,85.9445605 179.354892,87.10552 L158.017151,101.256528 C157.64697,98.5228324 156.382163,95.9697981 154.395635,94.0107756 L152.878715,92.5148585 C151.059288,90.7206241 148.700499,89.7841467 146.31803,89.7194335 C143.935561,89.6547203 141.529413,90.4617712 139.61527,92.1545935 L137.704713,93.8442454 C135.832182,95.500267 134.516441,97.6597655 133.889134,100.030576 Z"
            id="Path-2" stroke="#6CB400" stroke-width="6.6" fill="#78C800" />
        <ellipse id="Oval" fill="#D2E4E8" cx="104" cy="61.635514" rx="53" ry="52.635514" />
        <path
            d="M107.46737,134.438249 C107.419073,134.4887 107.369681,134.538092 107.319229,134.586389 C105.404251,136.419551 102.365783,136.353226 100.532621,134.438249 L65.9744622,98.3377297 C64.6916023,96.9976147 63.9755237,95.2140436 63.9755237,93.3588785 C63.9755237,89.3824283 67.1990735,86.1588785 71.1755237,86.1588785 L136.824467,86.1588785 C138.679632,86.1588785 140.463203,86.8749571 141.803318,88.157817 C144.675785,90.9075605 144.775272,95.4652627 142.025528,98.3377297 L107.46737,134.438249 L107.46737,134.438249 Z"
            id="Triangle" fill="#D2E4E8" />
        <ellipse id="Mask" fill="#FF4B4B" cx="104" cy="61.5" rx="40" ry="39.5" />
        <path
            d="M78.0828749,91.5882353 C73.4428723,87.6869712 69.7165977,82.7575825 67.2653612,77.1568627 L140.734639,77.1568627 C138.283402,82.7575825 134.557128,87.6869712 129.917125,91.5882353 L78.0828749,91.5882353 L78.0828749,91.5882353 Z"
            id="Path" fill="#FFFFFF" />
        <path
            d="M141.602898,48 C143.153989,52.2120931 144,56.7584833 144,61.5 C144,61.6669105 143.998952,61.8335792 143.996861,62 L98,62 L98,48 L141.602898,48 L141.602898,48 Z"
            id="Path" fill="#FFFFFF" />
        <path
            d="M98,22.4414141 C99.957161,22.1506918 101.96076,22 104,22 C115.196075,22 125.317789,26.5423912 132.578378,33.8627451 L98,33.8627451 L98,22.4414141 L98,22.4414141 Z"
            id="Path" fill="#FFFFFF" />
        <path
            d="M64.0031389,62 C64.0010484,61.8335792 64,61.6669105 64,61.5 C64,39.6847524 81.90861,22 104,22 C104.67065,22 105.337444,22.0162984 106,22.0485159 L106,59 C106,60.6568542 104.656854,62 103,62 L64.0031389,62 Z"
            id="Path" fill="#1CB0F6" />
        <path
            d="M83.4835538,27.5845353 C86.9695461,25.5237188 90.7997264,23.9721458 94.8686905,23.0339033 L97.1372431,23.5271653 C98.2165926,23.7618533 98.901326,24.8270912 98.666638,25.9064407 C98.5933888,26.2433199 98.4343023,26.5555447 98.2048161,26.8128171 L95.9982955,29.2865045 L96.3294112,32.5847199 C96.439747,33.6837648 95.6382398,34.6641616 94.5391949,34.7744974 C94.1961685,34.8089346 93.8500647,34.7541172 93.5344688,34.6153644 L90.5,33.28125 L87.4655312,34.6153644 C86.4543729,35.0599235 85.2742808,34.6006042 84.8297217,33.5894459 C84.690969,33.2738501 84.6361515,32.9277463 84.6705888,32.5847199 L85.0017045,29.2865045 L83.4835538,27.5845353 L83.4835538,27.5845353 Z"
            id="Path" fill="#FFFFFF" />
        <path
            d="M90.5,54.28125 L87.4655312,55.6153644 C86.4543729,56.0599235 85.2742808,55.6006042 84.8297217,54.5894459 C84.690969,54.2738501 84.6361515,53.9277463 84.6705888,53.5847199 L85.0017045,50.2865045 L82.7951839,47.8128171 C82.059918,46.9885248 82.1320881,45.7242531 82.9563804,44.9889872 C83.2136529,44.759501 83.5258777,44.6004145 83.8627569,44.5271653 L87.1018665,43.8228705 L88.7726306,40.9599332 C89.3293695,40.0059335 90.5540652,39.6838899 91.508065,40.2406288 C91.8058209,40.4143944 92.0536038,40.6621773 92.2273694,40.9599332 L93.8981335,43.8228705 L97.1372431,44.5271653 C98.2165926,44.7618533 98.901326,45.8270912 98.666638,46.9064407 C98.5933888,47.2433199 98.4343023,47.5555447 98.2048161,47.8128171 L95.9982955,50.2865045 L96.3294112,53.5847199 C96.439747,54.6837648 95.6382398,55.6641616 94.5391949,55.7744974 C94.1961685,55.8089346 93.8500647,55.7541172 93.5344688,55.6153644 L90.5,54.28125 Z"
            id="Star" fill="#FFFFFF" />
        <path
            d="M66.8723302,46.7738002 C68.660926,42.3805219 71.2259737,38.3780098 74.399714,34.9319261 L77.1372431,35.5271653 C78.2165926,35.7618533 78.901326,36.8270912 78.666638,37.9064407 C78.5933888,38.2433199 78.4343023,38.5555447 78.2048161,38.8128171 L75.9982955,41.2865045 L76.3294112,44.5847199 C76.439747,45.6837648 75.6382398,46.6641616 74.5391949,46.7744974 C74.1961685,46.8089346 73.8500647,46.7541172 73.5344688,46.6153644 L70.5,45.28125 L67.4655312,46.6153644 C67.271876,46.7005055 67.0720244,46.7524931 66.8723302,46.7738002 L66.8723302,46.7738002 Z"
            id="Path" fill="#FFFFFF" />
    </g>
    <deepl-alert xmlns="" />
    <deepl-alert xmlns="" />
    <deepl-alert xmlns="" />
</svg>