<svg xmlns="http://www.w3.org/2000/svg" xmlns:xlink="http://www.w3.org/1999/xlink" width="212px"
    height="212px" viewBox="0 0 212 212" version="1.1">
    <script xmlns="" />
    <!-- Generator: Sketch 63.1 (92452) - https://sketch.com -->
    <title>calendar</title>
    <desc>Created with Sketch.</desc>
    <defs>
        <path
            d="M13.9241167,0.15526728 L128.372275,0.15526728 C136.062352,0.15526728 142.296391,6.38930666 142.296391,14.079384 L142.296391,128.558258 C142.296391,136.248336 136.062352,142.482375 128.372275,142.482375 L13.9241167,142.482375 C6.23403938,142.482375 2.71811969e-15,136.248336 0,128.558258 L0,14.079384 C8.34593985e-16,6.38930666 6.23403938,0.15526728 13.9241167,0.15526728 Z"
            id="path-1" />
    </defs>
    <g id="calendar" stroke="none" stroke-width="1" fill="none" fill-rule="evenodd">
        <g id="Group" transform="translate(20.000000, 14.000000)">
            <path
                d="M23,11 L149,11 C161.702549,11 172,21.2974508 172,34 L172,160 C172,172.702549 161.702549,183 149,183 L23,183 C10.2974508,183 -1.12131224e-13,172.702549 -1.13686838e-13,160 L-1.13686838e-13,34 C-1.18795165e-13,21.2974508 10.2974508,11 23,11 Z"
                id="Rectangle" fill="#E7AD6F" />
            <g id="Group-11" transform="translate(15.000000, 0.000000)">
                <g id="Group-27" transform="translate(0.000000, 25.254375)">
                    <g id="Rectangle-230">
                        <mask id="mask-2" fill="white">
                            <use xlink:href="#path-1" />
                        </mask>
                        <use id="Mask" fill="#FFFFFF" xlink:href="#path-1" />
                        <path
                            d="M12.0779628,-2.58392045 L144,-2.58392045 L144,-2.58392045 C145.6635,-2.58392045 147.692308,-0.0960482121 147.692308,2.97289773 L147.692308,36.3138068 C147.692308,39.3827528 145.6635,41.870625 144,41.870625 L-1.84615385,41.870625 L-1.84615385,11.3401962 C-1.84615385,3.65011892 4.38788553,-2.58392045 12.0779628,-2.58392045 Z"
                            fill="#FF4B4B" mask="url(#mask-2)" />
                    </g>
                    <path
                        d="M32.0915253,111.802146 C31.6278517,110.778683 31.4423823,109.662178 31.4423823,108.638715 C31.4423823,105.382243 33.6680153,102.870107 37.284669,102.870107 C39.6030368,102.870107 41.7359351,104.172696 43.2196904,106.59179 C44.7034458,109.010884 47.1145482,110.499557 50.3602631,110.499557 C55.182468,110.499557 58.1499787,107.057 58.1499787,102.218813 C58.1499787,96.7293306 54.3478556,93.3798161 49.8038548,93.3798161 L49.1547119,93.3798161 C45.8162623,93.3798161 43.4978946,91.1468065 43.4978946,87.890334 C43.4978946,84.6338616 45.8162623,82.400852 49.1547119,82.400852 L49.8038548,82.400852 C53.9769168,82.400852 56.9444275,79.4235057 56.9444275,74.5853181 C56.9444275,70.1192988 54.1623862,67.1419526 49.8965895,67.1419526 C46.1872012,67.1419526 44.4252417,69.002794 43.4978946,70.9566775 C42.2923433,73.3757713 40.0667103,74.6783602 37.7483426,74.6783602 C34.409893,74.6783602 31.9987906,72.2592664 31.9987906,68.9097519 C31.9987906,67.8862892 32.2769947,66.7697843 32.7406682,65.6532795 C35.059036,60.3498816 41.3649962,56.1629885 50.4529978,56.1629885 C62.7867142,56.1629885 69.9272868,63.5133119 69.9272868,73.6548975 C69.9272868,79.0513375 67.4234497,83.7034409 62.8794489,86.6807871 L62.8794489,86.8668713 C66.7743067,88.7277127 71.1328381,93.8450265 71.1328381,102.125771 C71.1328381,113.662988 62.4157754,121.478521 50.5457325,121.478521 C41.457731,121.478521 34.7808318,117.942922 32.0915253,111.802146 Z M93.9891562,114.128199 L93.9891562,72.1662244 L93.8036868,72.1662244 L87.9614001,76.1670333 C86.7558489,77.0044119 85.3648282,77.3765802 84.0665423,77.3765802 C81.0990316,77.3765802 78.6879291,75.0505285 78.6879291,71.8870981 C78.6879291,69.9332147 79.7080109,67.8862892 81.9336439,66.3976161 L91.8562579,59.512503 C94.2673603,57.8377457 96.7711975,56.6281988 99.7387082,56.6281988 C104.189974,56.6281988 106.972016,59.7916292 106.972016,64.5367747 L106.972016,114.128199 C106.972016,118.408133 104.189974,121.013311 100.480586,121.013311 C96.6784628,121.013311 93.9891562,118.408133 93.9891562,114.128199 Z"
                        id="31" fill="#666666" />
                </g>
                <circle id="Oval" fill="#D73333" cx="37" cy="44" r="14" />
                <circle id="Oval" fill="#D73333" cx="105" cy="44" r="14" />
                <rect id="Rectangle-6" fill="#D8D8D8" x="27.6923077" y="-7.27595761e-12"
                    width="18.4615385" height="52.3068182" rx="9.23076923" />
                <rect id="Rectangle-6" fill="#D8D8D8" x="96" y="-7.27595761e-12" width="18.4615385"
                    height="52.3068182" rx="9.23076923" />
            </g>
        </g>
    </g>
    <deepl-alert xmlns="" />
    <deepl-alert xmlns="" />
    <deepl-alert xmlns="" />
</svg>