<?xml version="1.0" encoding="UTF-8"?><svg width="212px" height="212px" viewBox="0 0 212 212" version="1.1" xmlns="http://www.w3.org/2000/svg" xmlns:xlink="http://www.w3.org/1999/xlink"><title>city</title><desc>Created with Sketch.</desc><defs><path d="M5,0 C7.76142375,-5.07265313e-16 10,2.23857625 10,5 L10,15 C10,15.5522847 9.55228475,16 9,16 L1,16 C0.44771525,16 6.76353751e-17,15.5522847 0,15 L0,5 C-3.38176876e-16,2.23857625 2.23857625,5.07265313e-16 5,0 Z" id="path-1"/><path d="M5,0 C7.76142375,-5.07265313e-16 10,2.23857625 10,5 L10,15 C10,15.5522847 9.55228475,16 9,16 L1,16 C0.44771525,16 6.76353751e-17,15.5522847 0,15 L0,5 C-3.38176876e-16,2.23857625 2.23857625,5.07265313e-16 5,0 Z" id="path-3"/><path d="M134.133952,137.002 L134,137 C136.761424,137 139,139.238576 139,142 L138.999952,144.863 L130.862952,153 L130,153 C129.447715,153 129,152.552285 129,152 L128.999952,142.137 L134.133952,137.002 Z" id="path-5"/><path d="M176.133952,169.002 L176,169 C178.761424,169 181,171.238576 181,174 L180.999952,176.863 L172.862952,185 L172,185 C171.447715,185 171,184.552285 171,184 L170.999952,174.136 L176.133952,169.002 Z" id="path-7"/></defs><g id="city" stroke="none" stroke-width="1" fill="none" fill-rule="evenodd"><path d="M68.5068257,14.2537831 L116.906985,42.2218091 C117.667467,42.6612533 118.530289,42.8926189 119.408607,42.8926189 L129,42.8926189 C131.761424,42.8926189 134,45.1311952 134,47.8926189 L134,192 L134,192 L62.7021358,192 L61.0054432,18.6319042 C60.9784194,15.8706126 63.1949813,13.6102365 65.9562728,13.5832127 C66.8511476,13.5744549 67.7319721,13.806034 68.5068257,14.2537831 Z" id="Rectangle" fill="#E4F4F8"/><rect id="Rectangle" fill="#7DB8CD" x="63" y="138" width="71" height="10"/><rect id="Rectangle-Copy-2" fill="#7DB8CD" x="63" y="120" width="71" height="10"/><rect id="Rectangle-Copy-2" fill="#7DB8CD" x="63" y="102" width="71" height="10"/><rect id="Rectangle" fill="#E4F4F8" x="35" y="13.5625" width="31" height="19.4375"/><rect id="Rectangle-Copy-2" fill="#7DB8CD" x="63" y="84" width="71" height="10"/><rect id="Rectangle-Copy-2" fill="#7DB8CD" x="63" y="66" width="71" height="10"/><path d="M37.5712215,14.2161482 L83.9473269,42.0233212 C84.7241137,42.4890836 85.6128264,42.7351025 86.5185484,42.7351025 L96,42.7351025 C98.7614237,42.7351025 101,44.9736787 101,47.7351025 L101,192 L101,192 L30,192 L30,18.5043669 C30,15.7429431 32.2385763,13.5043669 35,13.5043669 C35.905722,13.5043669 36.7944347,13.7503858 37.5712215,14.2161482 Z" id="Rectangle" fill="#C5DEE3"/><rect id="Rectangle" fill="#7E9499" x="30" y="138" width="71" height="10"/><path d="M110.727795,53.6177539 L125.935241,59.5063573 C127.37682,60.0645632 128.367702,61.4034709 128.480254,62.9452477 L135.303198,156.408901 C135.464039,158.612177 133.808319,160.528673 131.605043,160.689514 C130.07539,160.801181 128.616574,160.028374 127.849712,158.70013 L111.89479,131.065395 C111.600884,130.556335 111.422786,129.988755 111.373168,129.403041 L105.2977,57.6855195 C105.111224,55.484265 106.744524,53.5486263 108.945778,53.3621496 C109.551489,53.3108375 110.160928,53.3982526 110.727795,53.6177539 Z" id="Rectangle" fill="#FFFFFF" opacity="0.264880952" transform="translate(120.298594, 107.024023) rotate(-330.000000) translate(-120.298594, -107.024023)"/><rect id="Rectangle" fill="#7E9499" x="56" y="174" width="14" height="18" rx="2"/><rect id="Rectangle-Copy-2" fill="#7E9499" x="30" y="120" width="71" height="10"/><rect id="Rectangle" fill="#A56644" x="187" y="162" width="10" height="30" rx="2"/><rect id="Rectangle" fill="#78C800" x="183" y="143" width="21" height="38" rx="10.5"/><rect id="Rectangle-Copy-2" fill="#7E9499" x="30" y="102" width="71" height="10"/><rect id="Rectangle-Copy-2" fill="#7E9499" x="30" y="84" width="71" height="10"/><rect id="Rectangle-Copy-2" fill="#7E9499" x="30" y="66" width="71" height="10"/><rect id="Rectangle" fill="#CD7900" x="119" y="94" width="71" height="98"/><path d="M43.1931569,38.8456754 L56.3166496,41.7253801 C58.0596818,42.1078559 59.3385312,43.5986624 59.4513239,45.3795966 L66.1504689,151.155433 C66.2901014,153.360155 64.6160159,155.26063 62.4112942,155.400262 C60.8424916,155.49962 59.3609299,154.670897 58.6245328,153.282109 L44.2418801,126.157534 C43.9779886,125.659855 43.8221912,125.112049 43.7846886,124.549985 L38.3447037,43.0190186 C38.1976305,40.8147807 39.8652919,38.9086665 42.0695298,38.7615932 C42.4461633,38.7364632 42.824458,38.7647713 43.1931569,38.8456754 Z" id="Rectangle" fill="#C5DEE3" opacity="0.276762463" transform="translate(52.247142, 97.080508) rotate(-330.000000) translate(-52.247142, -97.080508)"/><rect id="Rectangle" fill="#CAE0E5" x="116" y="94" width="79" height="5" rx="2.5"/><rect id="Rectangle" fill="#DFF5FA" x="116" y="128" width="77" height="5" rx="2.5"/><rect id="Rectangle" fill="#DFF5FA" x="116" y="160" width="77" height="5" rx="2.5"/><path d="M143.25,171.75 L165.75,171.75 C166.302285,171.75 166.75,172.197715 166.75,172.75 L166.75,187.75 C166.75,188.302285 166.302285,188.75 165.75,188.75 L143.25,188.75 L143.25,188.75" id="Rectangle" stroke="#E88900" stroke-width="2" fill="#ADE5FF" transform="translate(155.000000, 180.250000) rotate(-90.000000) translate(-155.000000, -180.250000)"/><path d="M134,104 C132.343146,104 130.843146,104.671573 129.757359,105.757359 C128.671573,106.843146 128,108.343146 128,110 L128,120 C128,120.552285 128.223858,121.052285 128.585786,121.414214 C128.947715,121.776142 129.447715,122 130,122 L138,122 C138.552285,122 139.052285,121.776142 139.414214,121.414214 C139.776142,121.052285 140,120.552285 140,120 L140,110 C140,108.343146 139.328427,106.843146 138.242641,105.757359 C137.156854,104.671573 135.656854,104 134,104 Z" id="Rectangle" stroke="#E88900" stroke-width="2" fill="#ADE5FF"/><g id="Rectangle" transform="translate(150.000000, 105.000000)"/><path d="M176,104 C174.343146,104 172.843146,104.671573 171.757359,105.757359 C170.671573,106.843146 170,108.343146 170,110 L170,120 C170,120.552285 170.223858,121.052285 170.585786,121.414214 C170.947715,121.776142 171.447715,122 172,122 L180,122 C180.552285,122 181.052285,121.776142 181.414214,121.414214 C181.776142,121.052285 182,120.552285 182,120 L182,110 C182,108.343146 181.328427,106.843146 180.242641,105.757359 C179.156854,104.671573 177.656854,104 176,104 Z" id="Rectangle" stroke="#E88900" stroke-width="2" fill="#ADE5FF"/><rect id="Rectangle" fill="#78C800" x="7" y="156" width="21" height="30" rx="10.5"/><path d="M134,136 C132.343146,136 130.843146,136.671573 129.757359,137.757359 C128.671573,138.843146 128,140.343146 128,142 L128,152 C128,152.552285 128.223858,153.052285 128.585786,153.414214 C128.947715,153.776142 129.447715,154 130,154 L138,154 C138.552285,154 139.052285,153.776142 139.414214,153.414214 C139.776142,153.052285 140,152.552285 140,152 L140,142 C140,140.343146 139.328427,138.843146 138.242641,137.757359 C137.156854,136.671573 135.656854,136 134,136 Z" id="Rectangle" stroke="#E88900" stroke-width="2" fill="#ADE5FF"/><path d="M155,136 C153.343146,136 151.843146,136.671573 150.757359,137.757359 C149.671573,138.843146 149,140.343146 149,142 L149,152 C149,152.552285 149.223858,153.052285 149.585786,153.414214 C149.947715,153.776142 150.447715,154 151,154 L159,154 C159.552285,154 160.052285,153.776142 160.414214,153.414214 C160.776142,153.052285 161,152.552285 161,152 L161,142 C161,140.343146 160.328427,138.843146 159.242641,137.757359 C158.156854,136.671573 156.656854,136 155,136 Z" id="Rectangle" stroke="#E88900" stroke-width="2" fill="#ADE5FF"/><path d="M176,136 C174.343146,136 172.843146,136.671573 171.757359,137.757359 C170.671573,138.843146 170,140.343146 170,142 L170,152 C170,152.552285 170.223858,153.052285 170.585786,153.414214 C170.947715,153.776142 171.447715,154 172,154 L180,154 C180.552285,154 181.052285,153.776142 181.414214,153.414214 C181.776142,153.052285 182,152.552285 182,152 L182,142 C182,140.343146 181.328427,138.843146 180.242641,137.757359 C179.156854,136.671573 177.656854,136 176,136 Z" id="Rectangle" stroke="#E88900" stroke-width="2" fill="#ADE5FF"/><g id="Rectangle" transform="translate(129.000000, 137.000000)"><mask id="mask-2" fill="white"><use xlink:href="#path-1"/></mask><path stroke="#E88900" stroke-width="2" d="M5,-1 C3.34314575,-1 1.84314575,-0.328427125 0.757359313,0.757359313 C-0.328427125,1.84314575 -1,3.34314575 -1,5 L-1,15 C-1,15.5522847 -0.776142375,16.0522847 -0.414213562,16.4142136 C-0.0522847498,16.7761424 0.44771525,17 1,17 L9,17 C9.55228475,17 10.0522847,16.7761424 10.4142136,16.4142136 C10.7761424,16.0522847 11,15.5522847 11,15 L11,5 C11,3.34314575 10.3284271,1.84314575 9.24264069,0.757359313 C8.15685425,-0.328427125 6.65685425,-1 5,-1 Z"/></g><path d="M134,168 C132.343146,168 130.843146,168.671573 129.757359,169.757359 C128.671573,170.843146 128,172.343146 128,174 L128,184 C128,184.552285 128.223858,185.052285 128.585786,185.414214 C128.947715,185.776142 129.447715,186 130,186 L138,186 C138.552285,186 139.052285,185.776142 139.414214,185.414214 C139.776142,185.052285 140,184.552285 140,184 L140,174 C140,172.343146 139.328427,170.843146 138.242641,169.757359 C137.156854,168.671573 135.656854,168 134,168 Z" id="Rectangle" stroke="#E88900" stroke-width="2" fill="#ADE5FF"/><path d="M176,168 C174.343146,168 172.843146,168.671573 171.757359,169.757359 C170.671573,170.843146 170,172.343146 170,174 L170,184 C170,184.552285 170.223858,185.052285 170.585786,185.414214 C170.947715,185.776142 171.447715,186 172,186 L180,186 C180.552285,186 181.052285,185.776142 181.414214,185.414214 C181.776142,185.052285 182,184.552285 182,184 L182,174 C182,172.343146 181.328427,170.843146 180.242641,169.757359 C179.156854,168.671573 177.656854,168 176,168 Z" id="Rectangle" stroke="#E88900" stroke-width="2" fill="#ADE5FF"/><rect id="Rectangle" fill="#A56644" x="26" y="162" width="7" height="30" rx="2"/><rect id="Rectangle" fill="#78C800" x="19" y="143" width="21" height="38" rx="10.5"/><g id="Rectangle" transform="translate(171.000000, 169.000000)"><mask id="mask-4" fill="white"><use xlink:href="#path-3"/></mask><path stroke="#E88900" stroke-width="2" d="M5,-1 C3.34314575,-1 1.84314575,-0.328427125 0.757359313,0.757359313 C-0.328427125,1.84314575 -1,3.34314575 -1,5 L-1,15 C-1,15.5522847 -0.776142375,16.0522847 -0.414213562,16.4142136 C-0.0522847498,16.7761424 0.44771525,17 1,17 L9,17 C9.55228475,17 10.0522847,16.7761424 10.4142136,16.4142136 C10.7761424,16.0522847 11,15.5522847 11,15 L11,5 C11,3.34314575 10.3284271,1.84314575 9.24264069,0.757359313 C8.15685425,-0.328427125 6.65685425,-1 5,-1 Z"/></g><mask id="mask-6" fill="white"><use xlink:href="#path-5"/></mask><use id="Combined-Shape" fill-opacity="0.75" fill="#FFFFFF" xlink:href="#path-5"/><mask id="mask-8" fill="white"><use xlink:href="#path-7"/></mask><use id="Combined-Shape" fill="#FFFFFF" opacity="0.75" xlink:href="#path-7"/><path d="M155,104 C153.343146,104 151.843146,104.671573 150.757359,105.757359 C149.671573,106.843146 149,108.343146 149,110 L149,120 C149,120.552285 149.223858,121.052285 149.585786,121.414214 C149.947715,121.776142 150.447715,122 151,122 L159,122 C159.552285,122 160.052285,121.776142 160.414214,121.414214 C160.776142,121.052285 161,120.552285 161,120 L161,110 C161,108.343146 160.328427,106.843146 159.242641,105.757359 C158.156854,104.671573 156.656854,104 155,104 Z" id="Mask" stroke="#E88900" stroke-width="2" fill="#ADE5FF"/><path d="M155.133952,105.002 L155,105 C157.761424,105 160,107.238576 160,110 L159.999952,112.863 L151.862952,121 L151,121 C150.447715,121 150,120.552285 150,120 L149.999952,110.137 L155.133952,105.002 Z" id="Combined-Shape" fill-opacity="0.75" fill="#FFFFFF"/></g></svg>