<svg xmlns="http://www.w3.org/2000/svg" xmlns:xlink="http://www.w3.org/1999/xlink" width="212px"
    height="212px" viewBox="0 0 212 212" version="1.1">
    <script xmlns="" />
    <!-- Generator: Sketch 63.1 (92452) - https://sketch.com -->
    <title>nine</title>
    <desc>Created with Sketch.</desc>
    <g id="nine" stroke="none" stroke-width="1" fill="none" fill-rule="evenodd">
        <path
            d="M89.94,152.752 C89.94,150.373 90.489,147.994 91.953,145.432 L110.07,112.675 L109.704,112.492 C108.423,113.224 105.129,113.773 101.835,113.773 C82.071,113.773 66.15,99.133 66.15,76.441 C66.15,51.37 84.267,36.547 107.874,36.547 C131.847,36.547 149.598,51.37 149.598,75.709 C149.598,86.323 146.304,95.839 140.448,106.453 L113.181,156.961 C110.619,161.719 106.41,164.098 101.835,164.098 C95.613,164.098 89.94,159.706 89.94,152.752 Z M107.874,92.728 C117.756,92.728 124.344,85.591 124.344,75.526 C124.344,65.278 117.756,58.141 107.874,58.141 C97.992,58.141 91.404,65.278 91.404,75.526 C91.404,85.591 97.992,92.728 107.874,92.728 Z"
            id="9" fill="#1CB0F6" />
    </g>
    <deepl-alert xmlns="" />
    <deepl-alert xmlns="" />
    <deepl-alert xmlns="" />
</svg>