<svg xmlns="http://www.w3.org/2000/svg" xmlns:xlink="http://www.w3.org/1999/xlink" width="212px"
    height="212px" viewBox="0 0 212 212" version="1.1">
    <script xmlns="" />
    <title>tv</title>
    <desc>Created with Sketch.</desc>
    <g id="tv" stroke="none" stroke-width="1" fill="none" fill-rule="evenodd">
        <g id="Group" transform="translate(14.000000, 38.000000)">
            <rect id="Rectangle" fill="#3F3F3F" x="82.0344828" y="113.815385" width="18.9310345"
                height="21.0769231" />
            <g id="Rectangle" fill="#3F3F3F">
                <path
                    d="M5.25,0 L177.75,0 C180.649495,-5.32628579e-16 183,2.35050506 183,5.25 L183,114.888462 C183,117.787956 180.649495,120.138462 177.75,120.138462 L5.25,120.138462 C2.35050506,120.138462 3.55085719e-16,117.787956 0,114.888462 L0,5.25 C-3.55085719e-16,2.35050506 2.35050506,5.32628579e-16 5.25,0 Z"
                    id="Mask" />
            </g>
            <g id="Rectangle" transform="translate(8.413793, 8.000000)" fill="#4F4F4F">
                <rect id="Mask" x="0" y="0.430769231" width="166.172414" height="103.276923"
                    rx="3.15" />
            </g>
            <rect id="Rectangle" fill="#3F3F3F" x="43.1206897" y="128.569231" width="96.7586207"
                height="8.43076923" rx="4.21538462" />
        </g>
        <path
            d="M174.909106,46.4304042 L22.4131056,138.059404 L22.4131056,99.5604042 L110.836106,46.4304042 L174.909106,46.4304042 Z"
            id="Combined-Shape" fill="#525252" />
        <path
            d="M188.586207,49.5807692 L188.586086,109.901876 L122.339086,149.706876 L25.5637931,149.707692 C25.2431082,149.707692 24.9336158,149.659772 24.6420861,149.570701 C26.5003559,147.272408 28.7852209,145.255967 31.4646374,143.646011 L188.568826,49.2478761 C188.580316,49.35727 188.586207,49.4683317 188.586207,49.5807692 Z"
            id="Combined-Shape" fill="#525252" />
    </g>
    <deepl-alert xmlns="" />
    <deepl-alert xmlns="" />
    <deepl-alert xmlns="" />
</svg>